<svg xmlns="http://www.w3.org/2000/svg" width="33" height="33" viewBox="0 0 33 33" fill="none">
  <path d="M21.3662 3.16663C21.9323 3.1653 22.3799 3.60508 22.3812 4.19145L22.3825 5.19095C26.0554 5.47881 28.4816 7.98155 28.4855 11.8196L28.5 23.054C28.5053 27.2386 25.8763 29.8133 21.6624 29.82L11.3692 29.8333C7.1816 29.8386 4.51976 27.2026 4.5145 23.006L4.50001 11.9036C4.49475 8.04019 6.83538 5.54411 10.5082 5.20694L10.5069 4.20744C10.5056 3.62107 10.94 3.17996 11.5193 3.17996C12.0985 3.17863 12.5329 3.61841 12.5342 4.20478L12.5356 5.13765L20.3552 5.12698L20.3539 4.19412C20.3526 3.60774 20.787 3.16796 21.3662 3.16663ZM21.9033 22.0892H21.8902C21.2846 22.1038 20.7988 22.6116 20.812 23.2246C20.8133 23.8376 21.3017 24.3427 21.9073 24.356C22.5247 24.3547 23.0249 23.8469 23.0236 23.2206C23.0236 22.5942 22.522 22.0892 21.9033 22.0892ZM11.0559 22.0905C10.4503 22.1171 9.9764 22.6249 9.97771 23.2379C10.0054 23.8509 10.5056 24.3307 11.1112 24.3027C11.7049 24.2761 12.1775 23.7683 12.1498 23.1553C12.1367 22.5556 11.6483 22.0892 11.0559 22.0905ZM16.4796 22.0838C15.874 22.1118 15.4014 22.6182 15.4014 23.2313C15.4291 23.8443 15.9293 24.3227 16.5349 24.2961C17.1273 24.2681 17.6012 23.7617 17.5736 23.1473C17.5604 22.5489 17.072 22.0825 16.4796 22.0838ZM11.0493 17.2929C10.4437 17.3195 9.97113 17.8273 9.97244 18.4403C9.99878 19.0533 10.5003 19.5331 11.1059 19.5051C11.6983 19.4785 12.1709 18.9707 12.1433 18.3577C12.1301 17.758 11.643 17.2916 11.0493 17.2929ZM16.4743 17.2462C15.8688 17.2729 15.3949 17.7806 15.3962 18.3937C15.4225 19.0067 15.9241 19.4851 16.5296 19.4585C17.122 19.4305 17.5946 18.9241 17.5683 18.311C17.5538 17.7113 17.0667 17.2449 16.4743 17.2462ZM21.8981 17.2529C21.2925 17.2662 20.8186 17.7593 20.8199 18.3724V18.387C20.8331 19 21.3333 19.4651 21.9402 19.4518C22.5326 19.4372 23.0052 18.9294 22.992 18.3164C22.9644 17.73 22.4891 17.2516 21.8981 17.2529ZM20.3578 7.17929L12.5382 7.18995L12.5395 8.26808C12.5395 8.84246 12.1064 9.29556 11.5272 9.29556C10.9479 9.2969 10.5122 8.84512 10.5122 8.27074L10.5109 7.24459C7.94382 7.50179 6.52338 9.01037 6.52732 11.9009L6.52865 12.3154L26.4595 12.2887V11.8223C26.4029 8.95707 24.9654 7.45382 22.3851 7.22993L22.3865 8.25608C22.3865 8.82913 21.9402 9.28357 21.3741 9.28357C20.7949 9.2849 20.3591 8.83179 20.3591 8.25875L20.3578 7.17929Z" fill="#D0CEF4"/>
</svg>