<svg xmlns="http://www.w3.org/2000/svg" width="26" height="27" viewBox="0 0 26 27" fill="none">
  <path d="M9.17968 25.1978V21.1208C9.17968 20.08 10.0295 19.2364 11.0779 19.2364H14.9101C15.4136 19.2364 15.8964 19.4349 16.2524 19.7883C16.6083 20.1417 16.8083 20.621 16.8083 21.1208V25.1978C16.8052 25.6304 16.9761 26.0465 17.2831 26.3535C17.5902 26.6606 18.008 26.8333 18.4439 26.8333H21.0584C22.2795 26.8364 23.4516 26.3571 24.3162 25.501C25.1808 24.645 25.6666 23.4826 25.6666 22.2704V10.6558C25.6666 9.67657 25.2294 8.74775 24.4728 8.11952L15.5787 1.06778C14.0315 -0.168625 11.8148 -0.128705 10.3138 1.1626L1.62266 8.11952C0.8303 8.72923 0.356716 9.66081 0.333313 10.6558V22.2585C0.333313 24.7851 2.39649 26.8333 4.94154 26.8333H7.49637C8.40161 26.8333 9.13731 26.1082 9.14387 25.2096L9.17968 25.1978Z" fill="#A6A2DA"/>
</svg>